<?xml version="1.0" encoding="iso-8859-1"?>
<!-- Generator: Adobe Illustrator 19.0.0, SVG Export Plug-In . SVG Version: 6.00 Build 0)  -->
<svg version="1.1" id="Capa_1" xmlns="http://www.w3.org/2000/svg" xmlns:xlink="http://www.w3.org/1999/xlink" x="0px" y="0px"
	 viewBox="0 0 512 512" style="enable-background:new 0 0 512 512;" xml:space="preserve">
<path style="fill:#FFDE5E;" d="M256,0C154.535,0,71.987,82.548,71.987,184.013c0,32.171,9.494,69.412,28.217,110.688
	c14.801,32.63,35.401,67.927,61.231,104.908c43.848,62.782,88.339,109.492,88.783,109.956c3.106,3.247,8.457,3.247,11.564,0
	c0.444-0.464,44.936-47.173,88.783-109.956c25.829-36.982,46.43-72.278,61.231-104.908c18.723-41.275,28.217-78.517,28.217-110.688
	C440.013,82.548,357.465,0,256,0z"/>
<path style="fill:#FFCF1A;" d="M193.437,391.645c-25.829-36.982-46.43-72.278-61.231-104.908
	c-18.723-41.275-28.217-78.517-28.217-110.688c0-80.39,51.822-148.893,123.81-173.888C139.672,15.771,71.987,92.135,71.987,184.013
	c0,32.171,9.494,69.412,28.217,110.688c14.801,32.63,35.401,67.927,61.231,104.908c43.848,62.782,88.339,109.492,88.783,109.956
	c3.106,3.247,8.457,3.247,11.564,0c0.15-0.157,5.327-5.592,13.8-15.132C261.533,479.014,227.296,440.125,193.437,391.645z"/>
<path style="fill:#EEEFF2;" d="M256,48.003c-74.995,0-136.01,61.014-136.01,136.01s61.014,136.01,136.01,136.01
	s136.01-61.014,136.01-136.01S330.995,48.003,256,48.003z"/>
<path style="fill:#56ACE1;" d="M372.446,247.612c-6.576-14.555-20.554-23.597-36.482-23.597H183.508
	c-19.477,0-36.063,13.957-39.439,33.186c-0.372,2.12,0.126,4.3,1.382,6.049c25.523,35.548,66.85,56.771,110.549,56.771
	c23.673,0,46.986-6.178,67.423-17.865c19.81-11.331,36.599-27.605,48.549-47.064C373.36,252.832,373.538,250.031,372.446,247.612z"
	/>
<path style="fill:#3A9FDE;" d="M168.114,257.202c3.376-19.229,19.961-33.186,39.439-33.186h-24.045
	c-19.477,0-36.063,13.957-39.439,33.186c-0.372,2.12,0.126,4.3,1.382,6.049c6.553,9.129,14.156,17.304,22.568,24.427
	C167.966,270.563,167.996,257.87,168.114,257.202z"/>
<g>
	<path style="fill:#FFF8DD;" d="M223.997,200.014v24.002c0,17.674,14.328,32.002,32.002,32.002s32.002-14.328,32.002-32.002v-24.002
		H223.997z"/>
	<circle style="fill:#FFF8DD;" cx="255.998" cy="152.011" r="64.005"/>
</g>
<path style="fill:#FFF3C7;" d="M272.001,208.015c-35.348,0-64.005-28.656-64.005-64.005c0-21.856,10.962-41.142,27.679-52.69
	c-25.381,8.498-43.68,32.449-43.68,60.69c0,35.348,28.656,64.005,64.005,64.005c13.494,0,26.004-4.185,36.326-11.315
	C285.938,206.839,279.108,208.015,272.001,208.015z"/>
<path style="fill:#66708D;" d="M259.578,158.222l32.847-16.423c5.319-2.66,11.579,1.208,11.579,7.156v45.368
	c10.367-11.752,16.499-27.328,15.969-44.35c-1.032-33.185-27.774-60.366-60.94-61.896c-36.728-1.695-67.037,27.58-67.037,63.934
	c0,16.226,6.049,31.031,16.001,42.313v-45.368c0-5.947,6.258-9.816,11.579-7.156l32.847,16.423
	C254.675,159.348,257.326,159.348,259.578,158.222z"/>
<path style="fill:#556080;" d="M235.702,91.301c-25.398,8.489-43.707,32.457-43.707,60.709c0,16.226,6.049,31.031,16.001,42.313
	v-45.368c0-0.442,0.045-0.869,0.111-1.286c-0.068-1.212-0.111-2.43-0.111-3.658C207.996,122.143,218.97,102.846,235.702,91.301z"/>
<g>
</g>
<g>
</g>
<g>
</g>
<g>
</g>
<g>
</g>
<g>
</g>
<g>
</g>
<g>
</g>
<g>
</g>
<g>
</g>
<g>
</g>
<g>
</g>
<g>
</g>
<g>
</g>
<g>
</g>
</svg>
